<svg width="97" height="84" viewBox="0 0 97 84" fill="none" xmlns="http://www.w3.org/2000/svg">
<path fill-rule="evenodd" clip-rule="evenodd" d="M48.4146 76.8375C70.4977 76.8375 88.3999 61.3549 88.3999 42.2564C88.3999 23.1578 70.4977 7.67533 48.4146 7.67533C26.3314 7.67533 8.42937 23.1578 8.42937 42.2564C8.42937 61.3549 26.3314 76.8375 48.4146 76.8375ZM51.4135 31.8821C51.4135 30.4497 50.0708 29.2885 48.4146 29.2885C46.7584 29.2885 45.4157 30.4497 45.4157 31.8821V39.6628H36.4191C34.7628 39.6628 33.4202 40.8241 33.4202 42.2564C33.4202 43.6888 34.7628 44.85 36.4191 44.85H45.4157V52.6308C45.4157 54.0631 46.7584 55.2243 48.4146 55.2243C50.0708 55.2243 51.4135 54.0631 51.4135 52.6308V44.85H60.4102C62.0664 44.85 63.4091 43.6888 63.4091 42.2564C63.4091 40.8241 62.0664 39.6628 60.4102 39.6628H51.4135V31.8821Z" fill="#1C274C"/>
</svg>
