<svg width="95" height="81" viewBox="0 0 95 81" fill="none" xmlns="http://www.w3.org/2000/svg">
<path fill-rule="evenodd" clip-rule="evenodd" d="M83.6051 9.74916C78.9675 5.84393 71.4491 5.8439 66.8115 9.74916L60.1623 15.3485L28.8677 41.7017C28.3604 42.129 28.0005 42.6643 27.8265 43.2503L23.8682 56.5837C23.5309 57.7197 23.9262 58.9213 24.9093 59.749C25.8925 60.577 27.3195 60.91 28.6684 60.626L44.5015 57.2927C45.1978 57.146 45.8331 56.843 46.3406 56.4157L77.4076 30.2542L84.2844 24.4632C88.922 20.558 88.922 14.2263 84.2844 10.3211L83.6051 9.74916ZM72.4094 14.4632C73.9551 13.1615 76.4615 13.1615 78.0072 14.4632L78.6865 15.0351C80.2322 16.3369 80.2322 18.4474 78.6865 19.7492L74.6629 23.1376L68.5061 17.7503L72.4094 14.4632ZM62.907 22.4652L69.0638 27.8525L41.5182 51.049L33.1485 52.811L35.2409 45.763L62.907 22.4652ZM15.8333 27.3921C15.8333 25.5512 17.6055 24.0588 19.7917 24.0588H39.5833C41.7695 24.0588 43.5417 22.5664 43.5417 20.7255C43.5417 18.8845 41.7695 17.3921 39.5833 17.3921H19.7917C13.2333 17.3921 7.91666 21.8693 7.91666 27.3921V64.0587C7.91666 69.5817 13.2333 74.0587 19.7917 74.0587H63.3333C69.8919 74.0587 75.2083 69.5817 75.2083 64.0587V47.392C75.2083 45.5513 73.4362 44.0587 71.25 44.0587C69.0638 44.0587 67.2916 45.5513 67.2916 47.392V64.0587C67.2916 65.8997 65.5195 67.392 63.3333 67.392H19.7917C17.6055 67.392 15.8333 65.8997 15.8333 64.0587V27.3921Z" fill="#1C274C"/>
</svg>
