<svg width="128" height="108" viewBox="0 0 128 108" fill="none" xmlns="http://www.w3.org/2000/svg">
<rect width="128" height="108" fill="#1E1E1E"/>
<g id="Group 18">
<g id="Group 17">
<g id=" Admin Panel Manage Blog">
<rect width="1651" height="1028" transform="translate(-76 -647)" fill="#020617"/>
</g>
<rect id="Rectangle 2" x="-109" y="-537.274" width="259" height="868" fill="#D9D9D9"/>
<g id="logout-svgrepo-com 1" clip-path="url(#clip0_31_37)">
<path id="Vector" d="M0 33.7452V74.6025C0 78.3642 1.876 81.708 4.876 84.3194C7.876 86.8272 11.752 88.1848 16.252 88.1848H40.752V79.7218H16.252C12.876 79.7218 10.252 77.4213 10.252 74.6025V33.7452C10.252 30.9231 12.876 28.7296 16.252 28.7296H40.752V20.1595H16.252C11.752 20.1595 7.876 21.6241 4.876 24.1319C1.876 26.7434 0 29.9835 0 33.7452ZM26.876 46.077V62.3777C26.876 64.2603 28.876 65.8251 31.128 65.8251H53.752V78.6785C53.752 79.8288 54.504 80.7684 55.752 81.29C56.252 81.3936 56.752 81.3936 57.004 81.3936C57.88 81.3936 58.628 81.183 59.256 80.6614L88.632 56.1049C90.008 55.1653 89.884 53.2827 88.632 52.2395L59.256 27.7866C57.504 26.2184 53.756 27.158 53.756 29.6692V42.6262H31.132C28.88 42.6262 26.88 44.1944 26.88 46.0736L26.876 46.077Z" fill="black"/>
</g>
</g>
</g>
<defs>
<clipPath id="clip0_31_37">
<rect width="128" height="107" fill="white" transform="translate(0 0.725647)"/>
</clipPath>
</defs>
</svg>
