<svg width="87" height="102" viewBox="0 0 87 102" fill="none" xmlns="http://www.w3.org/2000/svg">
<path d="M81.78 83.5457C82.7408 83.5457 83.52 82.6411 83.52 81.5257V20.9257C83.52 19.8102 82.7408 18.9057 81.78 18.9057H5.22C4.25918 18.9057 3.48 19.8102 3.48 20.9257V81.5257C3.48 82.6411 4.25918 83.5457 5.22 83.5457H81.78ZM81.78 87.5857H5.22C2.33719 87.5857 0 84.8724 0 81.5257V20.9257C0 17.579 2.33719 14.8657 5.22 14.8657H81.78C84.6628 14.8657 87 17.579 87 20.9257V81.5257C87 84.8724 84.6628 87.5857 81.78 87.5857Z" fill="black"/>
<path d="M82.5743 17.0157L44.1464 53.7999C43.6819 54.2442 42.7975 54.2442 42.3327 53.7995L3.71722 16.8349C2.97577 16.1251 1.87918 16.2475 1.2678 17.1083C0.656422 17.969 0.761858 19.2421 1.50331 19.9519L40.1192 56.9169C41.8698 58.5916 44.6097 58.5916 46.3599 56.9173L84.7882 20.1327C85.5297 19.4229 85.6351 18.1498 85.0237 17.2891C84.4124 16.4283 83.3158 16.3059 82.5743 17.0157Z" fill="black"/>
<path d="M35.2982 49.71L1.88409 81.5128C1.14093 82.2201 1.03244 83.4929 1.64169 84.3556C2.25095 85.2184 3.34728 85.3443 4.09044 84.637L37.5046 52.8342C38.2477 52.1269 38.3562 50.8541 37.747 49.9914C37.1377 49.1286 36.0414 49.0027 35.2982 49.71ZM85.9914 82.0084L52.2285 49.8742C51.4853 49.1669 50.389 49.2928 49.7797 50.1556C49.1705 51.0183 49.279 52.2911 50.0221 52.9984L83.7851 85.1326C84.5282 85.8398 85.6246 85.7139 86.2338 84.8512C86.8431 83.9884 86.7346 82.7157 85.9914 82.0084Z" fill="black"/>
</svg>
