<svg width="61" height="59" viewBox="0 0 61 59" fill="none" xmlns="http://www.w3.org/2000/svg">
<path d="M58.1363 42.9002C58.0246 42.8998 57.9165 42.8621 57.831 42.7937C57.7454 42.7253 57.6879 42.6305 57.6684 42.5259L54.3599 24.6843C54.3381 24.566 54.3664 24.4444 54.4388 24.346C54.5112 24.2476 54.6217 24.1806 54.7461 24.1597C54.9972 24.1158 55.2512 24.28 55.2977 24.5267L58.6062 42.3684C58.6183 42.4336 58.6152 42.5005 58.5971 42.5645C58.5791 42.6284 58.5465 42.6878 58.5017 42.7385C58.4569 42.7892 58.401 42.8299 58.3379 42.8578C58.2748 42.8858 58.206 42.9002 58.1363 42.9002ZM58.6332 45.576C58.5214 45.5758 58.4132 45.5382 58.3276 45.4698C58.2421 45.4014 58.1845 45.3065 58.1652 45.2018C57.7354 42.8895 48.4234 42.463 42.6543 42.74C42.3668 42.7523 42.1667 42.5595 42.1547 42.3101C42.1515 42.2507 42.1607 42.1914 42.1816 42.1355C42.2026 42.0795 42.2349 42.028 42.2768 41.984C42.3188 41.9399 42.3694 41.9042 42.4259 41.8788C42.4823 41.8533 42.5435 41.8388 42.6059 41.8359C44.2201 41.7579 58.3876 41.1936 59.1032 45.0443C59.114 45.1029 59.1127 45.1629 59.0992 45.2209C59.0856 45.279 59.0602 45.3339 59.0244 45.3826C58.9885 45.4313 58.9429 45.4728 58.8902 45.5048C58.8375 45.5367 58.7786 45.5585 58.717 45.5688C58.689 45.5742 58.661 45.576 58.6332 45.576Z" fill="black"/>
<path d="M40.3125 30.2519C40.2007 30.2517 40.0926 30.2141 40.007 30.1457C39.9215 30.0773 39.8639 29.9824 39.8444 29.8778C39.8225 29.7595 39.8509 29.6378 39.9233 29.5394C39.9957 29.4411 40.1062 29.374 40.2306 29.3531C44.2758 28.6737 54.6093 26.0305 53.8631 22.0073C53.8412 21.8891 53.8696 21.7675 53.942 21.6691C54.0143 21.5707 54.1248 21.5037 54.2491 21.4827C54.5023 21.4389 54.7552 21.603 54.8009 21.8498C55.2587 24.3152 52.9244 26.4838 47.8633 28.295C44.2349 29.5931 40.4344 30.2385 40.3962 30.2447C40.3686 30.2496 40.3406 30.2521 40.3125 30.2519Z" fill="black"/>
<path d="M54.3311 22.3816C54.2192 22.3814 54.111 22.3437 54.0255 22.2752C53.9399 22.2067 53.8824 22.1118 53.8631 22.007C53.8412 21.8888 53.8696 21.7671 53.942 21.6688C54.0143 21.5704 54.1248 21.5034 54.2491 21.4824L56.1267 21.1684C56.3816 21.1294 56.6337 21.2896 56.6784 21.5364C56.7003 21.6547 56.672 21.7764 56.5996 21.8747C56.5272 21.9731 56.4166 22.0401 56.2923 22.061L54.4149 22.3749C54.3872 22.3794 54.3592 22.3816 54.3311 22.3816Z" fill="black"/>
<path d="M60.5088 45.2619C60.397 45.2616 60.2889 45.2239 60.2034 45.1555C60.1179 45.0871 60.0603 44.9923 60.0408 44.8877L55.7407 21.6933C55.7187 21.5751 55.7471 21.4534 55.8195 21.3551C55.8919 21.2567 56.0024 21.1897 56.1267 21.1687C56.3816 21.1249 56.6328 21.289 56.6784 21.5359L60.9786 44.7302C60.9906 44.7954 60.9876 44.8623 60.9695 44.9262C60.9515 44.9902 60.9189 45.0496 60.8741 45.1003C60.8294 45.151 60.7734 45.1917 60.7103 45.2196C60.6472 45.2476 60.5784 45.262 60.5088 45.2619Z" fill="black"/>
<path d="M58.6331 45.576C58.5138 45.5762 58.3987 45.5338 58.3107 45.4572C58.2227 45.3806 58.1681 45.2754 58.1578 45.1623C58.1475 45.0493 58.1822 44.9367 58.2551 44.8468C58.328 44.757 58.4337 44.6964 58.5513 44.6772L60.4268 44.3633C60.6789 44.3173 60.932 44.4827 60.9785 44.7303C61.0004 44.8485 60.972 44.9702 60.8997 45.0685C60.8273 45.1669 60.7168 45.2339 60.5925 45.2549L58.7169 45.5688C58.6893 45.5738 58.6612 45.5762 58.6331 45.576ZM33.2474 44.3137C33.1356 44.3133 33.0275 44.2756 32.942 44.2072C32.8565 44.1388 32.7989 44.044 32.7794 43.9394L30.4628 31.4506C30.4518 31.3921 30.4531 31.3321 30.4667 31.2741C30.4803 31.216 30.5058 31.1612 30.5419 31.1127C30.5774 31.0636 30.6228 31.0219 30.6756 30.9898C30.7283 30.9578 30.7873 30.9361 30.849 30.9261L40.2307 29.3532C40.4828 29.3082 40.7358 29.4735 40.7824 29.7203C40.8043 29.8386 40.7759 29.9602 40.7035 30.0586C40.6311 30.157 40.5206 30.224 40.3963 30.2449L31.4834 31.739L33.6345 43.3362L42.5474 41.8421C42.8023 41.797 43.0535 41.9624 43.099 42.2091C43.1209 42.3273 43.0925 42.449 43.0201 42.5473C42.9477 42.6457 42.8373 42.7127 42.713 42.7337L33.3313 44.3066C33.3031 44.3111 33.2753 44.3137 33.2474 44.3137Z" fill="black"/>
<path d="M33.2482 44.3137C33.2154 44.314 33.1827 44.3107 33.1506 44.3039L28.1285 43.306C28.0353 43.2877 27.9501 43.2431 27.8839 43.1781C27.8177 43.1131 27.7736 43.0306 27.7574 42.9415L26.1031 34.0212C26.0864 33.932 26.0982 33.8402 26.137 33.7575C26.1758 33.6749 26.2399 33.6052 26.3209 33.5576L30.6805 30.987C30.7469 30.9486 30.8221 30.926 30.8997 30.9211C30.9773 30.9162 31.055 30.9291 31.1262 30.9587C31.1972 30.9888 31.2594 31.035 31.3073 31.0934C31.3551 31.1517 31.3872 31.2203 31.4006 31.2931L33.7171 43.7819C33.7308 43.8547 33.7255 43.9296 33.7015 44C33.6775 44.0704 33.6356 44.134 33.5795 44.1853C33.491 44.2677 33.3721 44.3138 33.2482 44.3137ZM28.6392 42.4816L32.6567 43.2804L30.5847 32.1087L27.0967 34.1664L28.6392 42.4816ZM42.2979 40.9558C42.1861 40.9555 42.078 40.9178 41.9925 40.8494C41.9069 40.781 41.8494 40.6862 41.8299 40.5815L40.1756 31.6612C40.1538 31.5429 40.1821 31.4213 40.2545 31.3229C40.3269 31.2246 40.4373 31.1576 40.5617 31.1366C40.8167 31.0915 41.0678 31.2561 41.1134 31.5037L42.7677 40.424C42.7797 40.4892 42.7766 40.5562 42.7586 40.6201C42.7406 40.684 42.708 40.7434 42.6632 40.7941C42.6184 40.8448 42.5625 40.8855 42.4994 40.9135C42.4363 40.9414 42.3675 40.9558 42.2979 40.9558Z" fill="black"/>
<path d="M28.7779 35.864C28.6661 35.864 28.5578 35.8264 28.4722 35.7579C28.3866 35.6895 28.3292 35.5945 28.3099 35.4897C28.2881 35.3714 28.3164 35.2497 28.3888 35.1512C28.4611 35.0527 28.5716 34.9854 28.696 34.9642L29.6338 34.8086C29.8888 34.7661 30.1399 34.9289 30.1855 35.1766C30.1963 35.2351 30.195 35.2951 30.1815 35.3531C30.1679 35.411 30.1425 35.4659 30.1067 35.5146C30.0708 35.5632 30.0252 35.6046 29.9725 35.6365C29.9198 35.6683 29.861 35.69 29.7994 35.7002L28.8616 35.8578C28.8339 35.8616 28.8059 35.8637 28.7779 35.864ZM29.7697 41.2167C29.6577 41.2166 29.5493 41.1789 29.4637 41.1103C29.3781 41.0417 29.3207 40.9465 29.3017 40.8416C29.2908 40.783 29.2922 40.723 29.3057 40.665C29.3193 40.6069 29.3448 40.552 29.3808 40.5033C29.4167 40.4547 29.4624 40.4132 29.5153 40.3814C29.5681 40.3496 29.627 40.328 29.6886 40.3179L30.6284 40.1604C30.8833 40.1198 31.1336 40.2824 31.1791 40.5284C31.201 40.6468 31.1725 40.7687 31.1 40.8673C31.0274 40.9658 30.9167 41.0329 30.7921 41.0539L29.8525 41.2095C29.8252 41.2146 29.7974 41.2169 29.7697 41.2167ZM29.2747 38.5407C29.163 38.5404 29.0549 38.5027 28.9694 38.4343C28.8838 38.3659 28.8263 38.2711 28.8068 38.1665C28.7849 38.0482 28.8133 37.9266 28.8856 37.8282C28.958 37.7299 29.0685 37.6629 29.1928 37.6419L30.1307 37.4844C30.3818 37.4384 30.6359 37.6039 30.6823 37.8514C30.7041 37.9697 30.6758 38.0913 30.6034 38.1897C30.531 38.288 30.4206 38.355 30.2963 38.376L29.3584 38.5336C29.3306 38.5381 29.3026 38.5407 29.2747 38.5407ZM31.7867 31.2215C31.6676 31.2215 31.5528 31.179 31.465 31.1024C31.3772 31.0258 31.3228 30.9207 31.3125 30.8079C31.3022 30.695 31.3368 30.5826 31.4094 30.4928C31.482 30.403 31.5874 30.3423 31.7047 30.3228L33.5804 30.0078C33.8315 29.964 34.0855 30.1281 34.1321 30.3749C34.154 30.4931 34.1256 30.6148 34.0532 30.7131C33.9808 30.8115 33.8703 30.8785 33.746 30.8995L31.8705 31.2144C31.8426 31.2189 31.8146 31.2215 31.7867 31.2215ZM46.0501 55.964C45.9619 55.964 45.8753 55.9407 45.8002 55.8966C45.7251 55.8525 45.6644 55.7894 45.6249 55.7144L41.1555 47.2666C41.0373 47.0426 41.1313 46.7703 41.3666 46.6588C41.5991 46.5455 41.8866 46.6349 42.0058 46.8596L46.4752 55.3075C46.5934 55.5313 46.4994 55.8038 46.2641 55.9153C46.1979 55.9475 46.1245 55.9643 46.0501 55.964ZM41.3592 56.7512C41.271 56.7512 41.1845 56.7279 41.1094 56.6838C41.0343 56.6398 40.9736 56.5767 40.9341 56.5017L36.4645 48.052C36.3465 47.8281 36.4405 47.5557 36.6758 47.4443C36.9093 47.331 37.1958 47.4195 37.3148 47.645L41.7844 56.0948C41.9025 56.3187 41.8086 56.5911 41.5732 56.7024C41.507 56.7348 41.4336 56.7515 41.3592 56.7512Z" fill="black"/>
<path d="M40.4186 56.9078C40.3068 56.9076 40.1986 56.87 40.113 56.8016C40.0275 56.7331 39.97 56.6382 39.9506 56.5335C39.9397 56.475 39.941 56.415 39.9546 56.3569C39.9681 56.2989 39.9935 56.2439 40.0293 56.1952C40.0652 56.1465 40.1107 56.105 40.1635 56.073C40.2162 56.041 40.275 56.0193 40.3366 56.0089L46.9051 54.9076C47.158 54.8625 47.4102 55.027 47.4567 55.2746C47.4786 55.3929 47.4502 55.5145 47.3778 55.6129C47.3054 55.7112 47.195 55.7783 47.0707 55.7993L40.5023 56.9007C40.4747 56.9058 40.4467 56.9081 40.4186 56.9078ZM34.6821 46.833C34.5703 46.8328 34.4622 46.7951 34.3767 46.7267C34.2911 46.6583 34.2336 46.5635 34.2141 46.4589L34.028 45.4549C34.0171 45.3963 34.0185 45.3363 34.032 45.2782C34.0455 45.2202 34.0709 45.1652 34.1068 45.1165C34.1426 45.0678 34.1882 45.0263 34.241 44.9943C34.2937 44.9623 34.3525 44.9406 34.4141 44.9303C34.6662 44.8843 34.9193 45.0506 34.9657 45.2974L35.1518 46.3014C35.1639 46.3666 35.1608 46.4335 35.1428 46.4974C35.1247 46.5613 35.0921 46.6207 35.0474 46.6714C35.0026 46.7221 34.9467 46.7628 34.8836 46.7907C34.8205 46.8187 34.7517 46.8331 34.6821 46.833Z" fill="black"/>
<path d="M34.6821 46.833C34.5699 46.8328 34.4614 46.7951 34.3756 46.7263C34.2898 46.6576 34.2323 46.5623 34.2131 46.4572C34.1918 46.3387 34.2207 46.217 34.2936 46.1188C34.3665 46.0206 34.4775 45.954 34.602 45.9335L43.0497 44.5446C43.1741 44.5254 43.3015 44.5534 43.4045 44.6225C43.5074 44.6917 43.5778 44.7965 43.6003 44.9144C43.6217 45.0329 43.5927 45.1545 43.5198 45.2527C43.4469 45.3509 43.336 45.4176 43.2115 45.4381L34.7638 46.8269C34.7369 46.8303 34.709 46.833 34.6821 46.833Z" fill="black"/>
<path d="M43.1296 45.4442C43.0178 45.4439 42.9098 45.4062 42.8242 45.3378C42.7387 45.2694 42.6811 45.1746 42.6616 45.0699L42.496 44.1783C42.4742 44.0601 42.5025 43.9384 42.5749 43.8401C42.6473 43.7417 42.7577 43.6747 42.882 43.6537C43.1361 43.6086 43.3882 43.774 43.4338 44.0208L43.5994 44.9125C43.6115 44.9777 43.6084 45.0446 43.5903 45.1085C43.5723 45.1725 43.5397 45.2318 43.495 45.2825C43.4502 45.3332 43.3943 45.374 43.3312 45.4019C43.268 45.4298 43.1992 45.4443 43.1296 45.4442ZM60.5097 30.6244C60.4472 30.6245 60.3852 30.6128 60.3274 30.59C60.2696 30.5673 60.2171 30.5339 60.1728 30.4919C60.1286 30.4498 60.0935 30.3999 60.0696 30.3449C60.0457 30.2899 60.0334 30.231 60.0334 30.1715V2.99648C60.0334 2.74613 60.2464 2.54347 60.5097 2.54347C60.773 2.54347 60.9861 2.74613 60.9861 2.99648V30.1715C60.9861 30.231 60.9738 30.2899 60.9499 30.3449C60.926 30.3999 60.8909 30.4498 60.8467 30.4919C60.8024 30.5339 60.7499 30.5673 60.6921 30.59C60.6343 30.6128 60.5723 30.6245 60.5097 30.6244ZM6.2064 43.3061C6.14384 43.3062 6.08188 43.2945 6.02408 43.2717C5.96627 43.249 5.91375 43.2156 5.86951 43.1736C5.82528 43.1315 5.79019 43.0816 5.76627 43.0266C5.74234 42.9716 5.73004 42.9127 5.73007 42.8532V2.99648C5.73004 2.93699 5.74234 2.87808 5.76626 2.82311C5.79019 2.76815 5.82527 2.7182 5.86951 2.67613C5.91374 2.63406 5.96626 2.60069 6.02407 2.57793C6.08187 2.55517 6.14383 2.54346 6.2064 2.54347C6.26897 2.54344 6.33094 2.55514 6.38876 2.5779C6.44658 2.60065 6.49911 2.63402 6.54336 2.67609C6.58761 2.71816 6.6227 2.76811 6.64664 2.82309C6.67057 2.87806 6.68287 2.93699 6.68284 2.99648V42.8532C6.68287 42.9127 6.67057 42.9717 6.64663 43.0266C6.6227 43.0816 6.5876 43.1315 6.54336 43.1736C6.49911 43.2157 6.44657 43.249 6.38875 43.2718C6.33093 43.2945 6.26897 43.3062 6.2064 43.3061Z" fill="black"/>
<path d="M3.34833 46.0235C3.28577 46.0236 3.22381 46.0119 3.166 45.9891C3.10818 45.9664 3.05566 45.933 3.01142 45.891C2.96718 45.8489 2.93209 45.799 2.90817 45.744C2.88425 45.689 2.87196 45.6301 2.87201 45.5706C2.87198 45.5111 2.88428 45.4522 2.9082 45.3973C2.93213 45.3423 2.96721 45.2924 3.01145 45.2503C3.05569 45.2083 3.10821 45.1749 3.16602 45.1522C3.22382 45.1294 3.28577 45.1177 3.34833 45.1177C4.66198 45.1177 5.73007 44.1022 5.73007 42.8532C5.73004 42.7938 5.74234 42.7349 5.76627 42.6799C5.79019 42.6249 5.82528 42.575 5.86952 42.5329C5.91375 42.4909 5.96627 42.4575 6.02408 42.4348C6.08188 42.412 6.14384 42.4003 6.2064 42.4003C6.26897 42.4003 6.33093 42.412 6.38875 42.4347C6.44657 42.4575 6.49911 42.4908 6.54336 42.5329C6.58761 42.575 6.6227 42.6249 6.64664 42.6799C6.67057 42.7348 6.68287 42.7938 6.68284 42.8532C6.68284 44.6011 5.18679 46.0235 3.34833 46.0235Z" fill="black"/>
<path d="M3.34849 46.0235C1.51003 46.0235 0.0140991 44.6011 0.0140991 42.8532C0.0140991 42.6029 0.227122 42.4003 0.490423 42.4003C0.753724 42.4003 0.966747 42.6029 0.966747 42.8532C0.966747 44.1022 2.03484 45.1177 3.34849 45.1177C3.41105 45.1177 3.473 45.1294 3.53081 45.1522C3.58861 45.1749 3.64113 45.2083 3.68537 45.2503C3.72961 45.2924 3.76469 45.3423 3.78862 45.3973C3.81254 45.4522 3.82484 45.5111 3.82481 45.5706C3.82487 45.6301 3.8126 45.689 3.78868 45.744C3.76477 45.799 3.72968 45.8489 3.68544 45.891C3.6412 45.9331 3.58866 45.9664 3.53084 45.9892C3.47302 46.0119 3.41106 46.0236 3.34849 46.0235Z" fill="black"/>
<path d="M0.490423 43.3061C0.427858 43.3062 0.365898 43.2945 0.308086 43.2718C0.250275 43.249 0.197747 43.2157 0.153507 43.1736C0.109266 43.1315 0.0741824 43.0816 0.0502615 43.0266C0.0263407 42.9717 0.0140523 42.9127 0.0140993 42.8533V5.71388C0.0140993 5.46353 0.227123 5.26098 0.490423 5.26098C0.753724 5.26098 0.966748 5.46353 0.966748 5.71388V42.8533C0.966795 42.9127 0.954506 42.9717 0.930585 43.0266C0.906665 43.0816 0.871581 43.1315 0.82734 43.1736C0.7831 43.2157 0.730572 43.249 0.67276 43.2718C0.614949 43.2945 0.552988 43.3062 0.490423 43.3061ZM4.30126 43.3061C4.23869 43.3062 4.17673 43.2945 4.11892 43.2718C4.06111 43.249 4.00858 43.2157 3.96434 43.1736C3.9201 43.1315 3.88501 43.0816 3.86109 43.0266C3.83717 42.9717 3.82488 42.9127 3.82493 42.8533V3.90228C3.82493 3.65193 4.03795 3.44939 4.30126 3.44939C4.56456 3.44939 4.77758 3.65193 4.77758 3.90228V42.8533C4.77763 42.9127 4.76534 42.9717 4.74142 43.0266C4.7175 43.0816 4.68241 43.1315 4.63817 43.1736C4.59393 43.2157 4.5414 43.249 4.48359 43.2718C4.42578 43.2945 4.36382 43.3062 4.30126 43.3061ZM2.39584 43.3061C2.33328 43.3062 2.27133 43.2945 2.21352 43.2717C2.15572 43.249 2.10319 43.2156 2.05896 43.1736C2.01472 43.1315 1.97964 43.0816 1.95571 43.0266C1.93178 42.9716 1.91948 42.9127 1.91952 42.8533V4.80808C1.91948 4.7486 1.93178 4.68969 1.95571 4.63473C1.97964 4.57977 2.01472 4.52983 2.05896 4.48777C2.10319 4.44571 2.15572 4.41235 2.21352 4.3896C2.27133 4.36685 2.33328 4.35515 2.39584 4.35518C2.45841 4.35514 2.52038 4.36682 2.57819 4.38956C2.63601 4.41231 2.68855 4.44567 2.7328 4.48773C2.77705 4.52979 2.81214 4.57973 2.83608 4.6347C2.86001 4.68967 2.87231 4.74859 2.87228 4.80808V42.8533C2.8723 42.9127 2.85998 42.9716 2.83605 43.0266C2.81211 43.0816 2.77701 43.1315 2.73276 43.1736C2.68852 43.2156 2.63599 43.249 2.57818 43.2717C2.52036 43.2945 2.45841 43.3062 2.39584 43.3061Z" fill="black"/>
<path d="M3.34833 44.2119C3.08503 44.2119 2.87201 44.0094 2.87201 43.759C2.87201 43.5087 3.08503 43.3061 3.34833 43.3061C3.47459 43.3059 3.59559 43.2581 3.68487 43.1732C3.77414 43.0883 3.82441 42.9733 3.82466 42.8532C3.82466 42.6029 4.03768 42.4003 4.30098 42.4003C4.56428 42.4003 4.77731 42.6029 4.77731 42.8532C4.77743 43.6024 4.13645 44.2119 3.34833 44.2119Z" fill="black"/>
<path d="M3.34834 44.2119C2.56035 44.2119 1.91925 43.6024 1.91925 42.8532C1.91922 42.7938 1.93152 42.7349 1.95544 42.6799C1.97937 42.6249 2.01446 42.575 2.05869 42.5329C2.10293 42.4909 2.15545 42.4575 2.21326 42.4348C2.27106 42.412 2.33301 42.4003 2.39557 42.4003C2.45815 42.4003 2.52011 42.412 2.57793 42.4347C2.63575 42.4575 2.68828 42.4908 2.73253 42.5329C2.77678 42.575 2.81188 42.6249 2.83581 42.6799C2.85975 42.7348 2.87205 42.7938 2.87202 42.8532C2.87227 42.9733 2.92253 43.0883 3.01181 43.1732C3.10108 43.2581 3.22209 43.3059 3.34834 43.3061C3.61164 43.3061 3.82467 43.5087 3.82467 43.759C3.82467 44.0094 3.61164 44.2119 3.34834 44.2119ZM30.1129 46.0235H3.34834C3.28578 46.0236 3.22382 46.0119 3.16601 45.9892C3.10819 45.9664 3.05567 45.933 3.01143 45.891C2.96719 45.8489 2.9321 45.799 2.90818 45.744C2.88426 45.689 2.87197 45.6301 2.87202 45.5706C2.87199 45.5112 2.88429 45.4522 2.90821 45.3973C2.93214 45.3423 2.96722 45.2924 3.01146 45.2503C3.0557 45.2083 3.10822 45.1749 3.16602 45.1522C3.22383 45.1294 3.28578 45.1177 3.34834 45.1177H30.1129C30.1755 45.1177 30.2375 45.1294 30.2953 45.1521C30.3531 45.1749 30.4056 45.2083 30.4499 45.2503C30.4941 45.2924 30.5292 45.3423 30.5531 45.3973C30.5771 45.4522 30.5894 45.5111 30.5894 45.5706C30.5894 45.6301 30.5771 45.689 30.5532 45.744C30.5292 45.799 30.4941 45.8489 30.4499 45.891C30.4056 45.9331 30.3531 45.9664 30.2953 45.9892C30.2375 46.0119 30.1755 46.0236 30.1129 46.0235ZM60.5098 3.44938H6.20641C6.14385 3.4494 6.0819 3.43769 6.02411 3.41494C5.96631 3.39218 5.91379 3.35882 5.86956 3.31676C5.82533 3.27471 5.79024 3.22477 5.76631 3.16982C5.74238 3.11486 5.73007 3.05596 5.73008 2.99648C5.73005 2.93699 5.74235 2.87808 5.76627 2.82311C5.7902 2.76815 5.82528 2.7182 5.86952 2.67613C5.91375 2.63406 5.96627 2.60069 6.02408 2.57793C6.08188 2.55517 6.14384 2.54346 6.20641 2.54347H60.5098C60.5723 2.54344 60.6343 2.55514 60.6921 2.5779C60.7499 2.60065 60.8024 2.63402 60.8467 2.6761C60.8909 2.71817 60.926 2.76812 60.9499 2.8231C60.9738 2.87807 60.9861 2.93699 60.9861 2.99648C60.9861 3.05597 60.9738 3.11487 60.9499 3.16984C60.926 3.2248 60.8909 3.27474 60.8466 3.3168C60.8024 3.35886 60.7499 3.39222 60.6921 3.41497C60.6343 3.43772 60.5723 3.44941 60.5098 3.44938ZM56.6989 12.5077H11.9225C11.86 12.5077 11.798 12.4961 11.7402 12.4733C11.6824 12.4506 11.6299 12.4172 11.5856 12.3751C11.5414 12.3331 11.5063 12.2831 11.4824 12.2282C11.4585 12.1732 11.4462 12.1143 11.4462 12.0548V6.61978C11.4462 6.56029 11.4585 6.50137 11.4824 6.4464C11.5063 6.39142 11.5414 6.34147 11.5856 6.2994C11.6299 6.25732 11.6824 6.22395 11.7402 6.2012C11.798 6.17844 11.86 6.16674 11.9225 6.16677H56.6989C56.7615 6.16674 56.8235 6.17844 56.8813 6.2012C56.9391 6.22395 56.9916 6.25732 57.0358 6.2994C57.0801 6.34147 57.1152 6.39142 57.1391 6.4464C57.163 6.50137 57.1753 6.56029 57.1752 6.61978V12.0548C57.1753 12.1143 57.163 12.1732 57.1391 12.2282C57.1152 12.2831 57.0801 12.3331 57.0358 12.3751C56.9916 12.4172 56.9391 12.4506 56.8813 12.4733C56.8234 12.4961 56.7615 12.5077 56.6989 12.5077ZM12.3989 11.6019H56.2226V7.07268H12.3989V11.6019Z" fill="black"/>
<path d="M53.8408 9.79018H14.7806C14.5173 9.79018 14.3043 9.58763 14.3043 9.33728C14.3043 9.08693 14.5173 8.88438 14.7806 8.88438H53.8408C54.1041 8.88438 54.3172 9.08693 54.3172 9.33728C54.3172 9.58763 54.1041 9.79018 53.8408 9.79018ZM54.7935 46.0235H46.2193C46.1567 46.0236 46.0948 46.0119 46.037 45.9891C45.9791 45.9664 45.9266 45.933 45.8824 45.891C45.8381 45.8489 45.8031 45.799 45.7791 45.744C45.7552 45.689 45.7429 45.6301 45.743 45.5706C45.7429 45.5111 45.7552 45.4522 45.7792 45.3973C45.8031 45.3423 45.8382 45.2924 45.8824 45.2503C45.9267 45.2083 45.9792 45.1749 46.037 45.1521C46.0948 45.1294 46.1567 45.1177 46.2193 45.1177H54.7935C54.8561 45.1177 54.918 45.1294 54.9758 45.1521C55.0336 45.1749 55.0862 45.2082 55.1304 45.2503C55.1746 45.2923 55.2097 45.3423 55.2337 45.3973C55.2576 45.4522 55.2699 45.5111 55.2698 45.5706C55.2699 45.6301 55.2576 45.689 55.2337 45.744C55.2098 45.799 55.1747 45.8489 55.1304 45.891C55.0862 45.9331 55.0337 45.9664 54.9758 45.9892C54.918 46.0119 54.8561 46.0236 54.7935 46.0235ZM25.2603 24.2835H11.9225C11.86 24.2835 11.798 24.2719 11.7402 24.2491C11.6824 24.2264 11.6298 24.193 11.5856 24.1509C11.5414 24.1089 11.5063 24.0589 11.4824 24.004C11.4584 23.949 11.4462 23.8901 11.4462 23.8306V15.6781C11.4462 15.6186 11.4584 15.5597 11.4824 15.5047C11.5063 15.4497 11.5414 15.3998 11.5856 15.3577C11.6298 15.3157 11.6824 15.2823 11.7402 15.2596C11.798 15.2368 11.86 15.2251 11.9225 15.2252H25.2602C25.3228 15.2252 25.3847 15.2369 25.4425 15.2596C25.5003 15.2824 25.5528 15.3157 25.5971 15.3578C25.6413 15.3998 25.6764 15.4498 25.7003 15.5047C25.7243 15.5597 25.7366 15.6186 25.7365 15.6781V23.8306C25.7366 23.8901 25.7243 23.949 25.7004 24.0039C25.6765 24.0589 25.6414 24.1088 25.5972 24.1509C25.5529 24.193 25.5004 24.2263 25.4426 24.2491C25.3848 24.2718 25.3229 24.2835 25.2603 24.2835ZM12.3988 23.3777H24.7839V16.131H12.3988V23.3777Z" fill="black"/>
<path d="M17.6388 23.3777C17.5504 23.3775 17.4638 23.354 17.3887 23.3098C17.3136 23.2655 17.2528 23.2023 17.2133 23.1272C17.1737 23.0521 17.1569 22.9679 17.1647 22.8842C17.1724 22.8005 17.2045 22.7205 17.2573 22.6532L20.1154 19.0299C20.1913 18.9339 20.3042 18.8705 20.4292 18.8535C20.5542 18.8366 20.6812 18.8674 20.7824 18.9392C20.8834 19.0113 20.9502 19.1185 20.9681 19.2373C20.9861 19.3561 20.9538 19.4768 20.8783 19.573L18.0203 23.1963C17.9759 23.2527 17.9183 23.2984 17.8521 23.3299C17.7858 23.3614 17.7128 23.3777 17.6388 23.3777Z" fill="black"/>
<path d="M23.3548 23.3777C23.2808 23.3777 23.2078 23.3614 23.1416 23.3299C23.0754 23.2984 23.0178 23.2527 22.9734 23.1963L20.1154 19.573C20.0398 19.4769 20.0075 19.3561 20.0254 19.2373C20.0434 19.1185 20.1102 19.0113 20.2111 18.9392C20.2612 18.9035 20.3182 18.8775 20.3788 18.8628C20.4394 18.848 20.5025 18.8447 20.5644 18.8531C20.6264 18.8615 20.686 18.8815 20.7398 18.9118C20.7937 18.9421 20.8407 18.9822 20.8782 19.0299L23.7363 22.6532C23.7891 22.7205 23.8211 22.8005 23.8289 22.8842C23.8367 22.9679 23.8198 23.052 23.7803 23.1272C23.7407 23.2023 23.68 23.2655 23.6049 23.3098C23.5297 23.354 23.4432 23.3775 23.3548 23.3777ZM14.7807 23.3777C14.6945 23.3777 14.6099 23.3554 14.536 23.3133C14.462 23.2712 14.4015 23.2107 14.3608 23.1385C14.3201 23.0662 14.3008 22.9848 14.305 22.9029C14.3091 22.821 14.3365 22.7418 14.3843 22.6735L16.2897 19.956C16.36 19.8563 16.4689 19.787 16.5927 19.7635C16.7165 19.74 16.8451 19.7641 16.9503 19.8305C17.0553 19.8972 17.1283 20.0008 17.1531 20.1185C17.1778 20.2363 17.1524 20.3586 17.0824 20.4586L15.177 23.1761C15.1335 23.2381 15.0746 23.289 15.0054 23.3241C14.9363 23.3593 14.8591 23.3777 14.7807 23.3777Z" fill="black"/>
<path d="M17.3206 21.5661C17.2421 21.5661 17.1649 21.5477 17.0958 21.5126C17.0266 21.4774 16.9677 21.4265 16.9242 21.3645L16.2896 20.4586C16.2549 20.4091 16.2308 20.3536 16.2187 20.2952C16.2065 20.2369 16.2066 20.1768 16.2189 20.1185C16.2311 20.0602 16.2554 20.0047 16.2902 19.9553C16.325 19.9059 16.3697 19.8635 16.4218 19.8305C16.6385 19.6915 16.9354 19.7478 17.0823 19.956L17.7167 20.862C17.7646 20.9301 17.7921 21.0094 17.7963 21.0913C17.8005 21.1732 17.7812 21.2546 17.7405 21.3269C17.6999 21.3992 17.6393 21.4596 17.5653 21.5017C17.4914 21.5439 17.4068 21.5661 17.3206 21.5661ZM14.7807 19.7544C13.9927 19.7544 13.3516 19.1449 13.3516 18.3957C13.3516 17.6465 13.9926 17.0369 14.7807 17.0369C15.5688 17.0369 16.2097 17.6465 16.2097 18.3957C16.2097 19.1449 15.5687 19.7544 14.7807 19.7544ZM14.7807 17.9427C14.5184 17.9427 14.3044 18.1457 14.3044 18.3956C14.3044 18.6455 14.5184 18.8485 14.7807 18.8485C15.0431 18.8485 15.257 18.6455 15.257 18.3956C15.257 18.1457 15.0431 17.9427 14.7807 17.9427Z" fill="black"/>
<path d="M40.5033 16.131H28.1183C27.855 16.131 27.6418 15.9284 27.6418 15.6781C27.6418 15.4277 27.855 15.2252 28.1183 15.2252H40.5033C40.7666 15.2252 40.9796 15.4277 40.9796 15.6781C40.9796 15.9284 40.7666 16.131 40.5033 16.131Z" fill="black"/>
<path d="M40.5033 18.8485H28.1183C27.855 18.8485 27.6418 18.6459 27.6418 18.3956C27.6418 18.1452 27.855 17.9427 28.1183 17.9427H40.5033C40.7666 17.9427 40.9796 18.1452 40.9796 18.3956C40.9796 18.6459 40.7666 18.8485 40.5033 18.8485Z" fill="black"/>
<path d="M40.5033 21.5661H28.1183C27.855 21.5661 27.6418 21.3636 27.6418 21.1132C27.6418 20.8629 27.855 20.6602 28.1183 20.6602H40.5033C40.7666 20.6602 40.9796 20.8629 40.9796 21.1132C40.9796 21.3636 40.7666 21.5661 40.5033 21.5661Z" fill="black"/>
<path d="M40.5033 24.2835H28.1183C27.855 24.2835 27.6418 24.081 27.6418 23.8306C27.6418 23.5802 27.855 23.3777 28.1183 23.3777H40.5033C40.7666 23.3777 40.9796 23.5802 40.9796 23.8306C40.9796 24.081 40.7666 24.2835 40.5033 24.2835Z" fill="black"/>
<path d="M40.5033 27.001H28.1183C27.855 27.001 27.6418 26.7985 27.6418 26.5481C27.6418 26.2978 27.855 26.0952 28.1183 26.0952H40.5033C40.7666 26.0952 40.9796 26.2978 40.9796 26.5481C40.9796 26.7985 40.7666 27.001 40.5033 27.001Z" fill="black"/>
<path d="M30.0237 29.7186H28.1183C27.855 29.7186 27.6418 29.5161 27.6418 29.2657C27.6418 29.0154 27.855 28.8128 28.1183 28.8128H30.0237C30.287 28.8128 30.5 29.0154 30.5 29.2657C30.5 29.5161 30.287 29.7186 30.0237 29.7186Z" fill="black"/>
<path d="M25.3049 27.001H11.9672C11.7039 27.001 11.4909 26.7985 11.4909 26.5481C11.4909 26.2978 11.7039 26.0952 11.9672 26.0952H25.3049C25.5682 26.0952 25.7812 26.2978 25.7812 26.5481C25.7812 26.7985 25.5682 27.001 25.3049 27.001Z" fill="black"/>
<path d="M23.3995 37.871H11.9672C11.7039 37.871 11.4909 37.6685 11.4909 37.4181C11.4909 37.1678 11.7039 36.9652 11.9672 36.9652H23.3995C23.6628 36.9652 23.8758 37.1678 23.8758 37.4181C23.8758 37.6685 23.6628 37.871 23.3995 37.871Z" fill="black"/>
<path d="M24.3521 40.5886H11.9672C11.7039 40.5886 11.4909 40.3861 11.4909 40.1357C11.4909 39.8854 11.7039 39.6828 11.9672 39.6828H24.3521C24.6154 39.6828 24.8284 39.8854 24.8284 40.1357C24.8284 40.3861 24.6154 40.5886 24.3521 40.5886Z" fill="black"/>
<path d="M25.3049 43.3061H11.9672C11.7039 43.3061 11.4909 43.1036 11.4909 42.8532C11.4909 42.6029 11.7039 42.4003 11.9672 42.4003H25.3049C25.5682 42.4003 25.7812 42.6029 25.7812 42.8532C25.7812 43.1036 25.5682 43.3061 25.3049 43.3061Z" fill="black"/>
<path d="M25.3049 29.7186H11.9672C11.7039 29.7186 11.4909 29.5161 11.4909 29.2657C11.4909 29.0154 11.7039 28.8128 11.9672 28.8128H25.3049C25.5682 28.8128 25.7812 29.0154 25.7812 29.2657C25.7812 29.5161 25.5682 29.7186 25.3049 29.7186Z" fill="black"/>
<path d="M24.3521 32.4361H11.9672C11.7039 32.4361 11.4909 32.2336 11.4909 31.9832C11.4909 31.7329 11.7039 31.5302 11.9672 31.5302H24.3521C24.6154 31.5302 24.8284 31.7329 24.8284 31.9832C24.8284 32.2336 24.6154 32.4361 24.3521 32.4361Z" fill="black"/>
<path d="M23.3995 35.1536H11.9672C11.9046 35.1536 11.8427 35.142 11.7849 35.1192C11.7271 35.0965 11.6746 35.0631 11.6303 35.021C11.5861 34.979 11.551 34.929 11.5271 34.8741C11.5031 34.8191 11.4908 34.7602 11.4909 34.7007C11.4908 34.6412 11.5031 34.5823 11.527 34.5273C11.551 34.4724 11.586 34.4224 11.6303 34.3803C11.6745 34.3383 11.727 34.3049 11.7849 34.2821C11.8427 34.2594 11.9046 34.2477 11.9672 34.2477H23.3995C23.462 34.2477 23.524 34.2594 23.5818 34.2821C23.6396 34.3049 23.6921 34.3383 23.7364 34.3803C23.7806 34.4224 23.8157 34.4724 23.8396 34.5273C23.8635 34.5823 23.8758 34.6412 23.8758 34.7007C23.8758 34.7602 23.8635 34.8191 23.8396 34.8741C23.8157 34.929 23.7806 34.979 23.7363 35.021C23.6921 35.0631 23.6396 35.0965 23.5818 35.1192C23.524 35.142 23.462 35.1536 23.3995 35.1536Z" fill="black"/>
<path d="M56.6989 16.131H43.3614C43.0979 16.131 42.8849 15.9284 42.8849 15.6781C42.8849 15.4277 43.0979 15.2252 43.3614 15.2252H56.6989C56.9622 15.2252 57.1752 15.4277 57.1752 15.6781C57.1752 15.9284 56.9622 16.131 56.6989 16.131Z" fill="black"/>
<path d="M56.6989 18.8485H43.3614C43.0979 18.8485 42.8849 18.6459 42.8849 18.3956C42.8849 18.1452 43.0979 17.9427 43.3614 17.9427H56.6989C56.9622 17.9427 57.1752 18.1452 57.1752 18.3956C57.1752 18.6459 56.9622 18.8485 56.6989 18.8485Z" fill="black"/>
<path d="M51.9356 21.5661H43.3614C43.0979 21.5661 42.8849 21.3636 42.8849 21.1132C42.8849 20.8629 43.0979 20.6602 43.3614 20.6602H51.9356C52.1989 20.6602 52.4119 20.8629 52.4119 21.1132C52.4119 21.3636 52.1989 21.5661 51.9356 21.5661Z" fill="black"/>
<path d="M49.0775 24.2835H43.3614C43.0979 24.2835 42.8849 24.081 42.8849 23.8306C42.8849 23.5802 43.0979 23.3777 43.3614 23.3777H49.0775C49.3408 23.3777 49.5538 23.5802 49.5538 23.8306C49.5538 24.081 49.3408 24.2835 49.0775 24.2835Z" fill="black"/>
<path d="M44.314 27.001H43.3614C43.0979 27.001 42.8849 26.7985 42.8849 26.5481C42.8849 26.2978 43.0979 26.0952 43.3614 26.0952H44.314C44.5773 26.0952 44.7903 26.2978 44.7903 26.5481C44.7903 26.7985 44.5773 27.001 44.314 27.001Z" fill="black"/>
</svg>
