<svg width="70" height="66" viewBox="0 0 70 66" fill="none" xmlns="http://www.w3.org/2000/svg">
<path d="M4.375 18.3298C4.375 10.1031 11.5571 3.434 20.4167 3.434C29.2763 3.434 36.4583 10.1031 36.4583 18.3298C36.4583 26.5566 29.2763 33.2257 20.4167 33.2257C11.5571 33.2257 4.375 26.5566 4.375 18.3298Z" fill="black"/>
<path d="M42.2914 18.3298C42.2914 22.3933 41.0063 26.178 38.7931 29.3527C41.6424 31.7591 45.4282 33.2257 49.583 33.2257C58.4427 33.2257 65.6247 26.5566 65.6247 18.3298C65.6247 10.1031 58.4427 3.434 49.583 3.434C45.4282 3.434 41.6424 4.90064 38.7931 7.30681C41.0063 10.4817 42.2914 14.2664 42.2914 18.3298Z" fill="black"/>
<path d="M0 49.4757C0 43.4927 5.22334 38.6423 11.6667 38.6423H29.1667C35.6099 38.6423 40.8333 43.4927 40.8333 49.4757V60.309C40.8333 61.8048 39.5275 63.0173 37.9167 63.0173H2.91667C1.30584 63.0173 0 61.8048 0 60.309V49.4757Z" fill="black"/>
<path d="M46.6667 49.4757V63.0173H67.0833C68.6939 63.0173 70 61.8048 70 60.309V49.4757C70 43.4927 64.7765 38.6423 58.3333 38.6423H42.2106C44.9814 41.5172 46.6667 45.3138 46.6667 49.4757Z" fill="black"/>
</svg>
